<svg width="120" height="126" fill="none" xmlns="http://www.w3.org/2000/svg"><path fill-rule="evenodd" clip-rule="evenodd" d="M62.433 99.96c1.486 0 2.83.368 4.034 1.102 1.204.735 2.157 1.78 2.858 3.134.7 1.353 1.05 2.922 1.05 4.707 0 1.783-.35 3.363-1.05 4.738-.701 1.376-1.654 2.441-2.858 3.197-1.204.755-2.548 1.133-4.034 1.133-1.277 0-2.402-.262-3.376-.788-.863-.465-1.584-1.04-2.16-1.722l-.21-.261V126h-4.395v-25.756h4.396v2.519l.196-.261c.545-.683 1.26-1.263 2.143-1.739.995-.535 2.129-.802 3.406-.802zm21.285 0c1.486 0 2.83.368 4.034 1.102 1.204.735 2.156 1.78 2.857 3.134.7 1.353 1.052 2.922 1.052 4.707 0 1.783-.351 3.363-1.052 4.738-.701 1.376-1.653 2.441-2.857 3.197-1.203.755-2.548 1.133-4.034 1.133-1.276 0-2.401-.262-3.374-.788a7.328 7.328 0 01-2.162-1.722l-.21-.261V126H73.58v-25.756h4.394v2.519l.196-.261c.545-.683 1.258-1.263 2.142-1.739.995-.535 2.13-.802 3.407-.802zm22.564.284l4.489 12.185 4.551-12.185H120l-10.768 25.694h-4.677l3.767-8.691-6.969-17.003h4.929zm-73.52-11.65v.409l-.426.418c-2.093 2.119-3.705 4.624-4.833 7.517a26.04 26.04 0 00-1.806 9.54c0 3.191.57 6.272 1.713 9.242 1.14 2.97 2.766 5.546 4.88 7.73v.441h-4.426l-.355-.355c-1.859-1.917-3.317-4.318-4.37-7.203-1.12-3.064-1.679-6.35-1.679-9.855 0-3.589.585-6.964 1.757-10.123 1.172-3.16 2.878-5.746 5.118-7.761h4.426zm60.442 0l.389.361c2.048 1.96 3.625 4.427 4.728 7.4 1.172 3.16 1.758 6.534 1.758 10.123 0 3.505-.561 6.791-1.68 9.855-1.12 3.065-2.694 5.585-4.725 7.558h-4.427v-.441l.392-.414c1.925-2.094 3.421-4.532 4.491-7.316a25.587 25.587 0 001.71-9.242 26.04 26.04 0 00-1.804-9.54c-1.204-3.086-2.956-5.73-5.26-7.935v-.41h4.428zM37.82 99.96c1.297 0 2.432.262 3.406.786.864.467 1.576 1.041 2.136 1.723l.202.261v-2.487h4.427v17.444h-4.427v-2.551l-.196.268c-.544.699-1.259 1.287-2.142 1.763-.995.536-2.14.803-3.439.803-1.463 0-2.8-.378-4.002-1.133-1.203-.756-2.156-1.821-2.857-3.197-.701-1.375-1.051-2.955-1.051-4.738 0-1.764.35-3.327 1.05-4.692.702-1.364 1.655-2.414 2.858-3.149 1.203-.734 2.548-1.101 4.035-1.101zM4.395 95.71v9.036h9.386V95.71h4.395v21.978h-4.395v-9.352H4.395v9.352H0V95.71h4.395zm34.556 8.124a4.44 4.44 0 00-2.26.597c-.692.399-1.251.982-1.681 1.748-.428.766-.643 1.673-.643 2.724 0 1.05.215 1.968.643 2.755.43.787.995 1.39 1.696 1.811.7.419 1.45.629 2.245.629.815 0 1.58-.204 2.29-.614.712-.41 1.278-.997 1.696-1.763.418-.766.628-1.684.628-2.756 0-1.07-.21-1.989-.628-2.754-.418-.766-.984-1.355-1.696-1.764a4.515 4.515 0 00-2.29-.613zm22.32 0a4.38 4.38 0 00-2.244.613c-.7.409-1.266 1.002-1.696 1.78-.43.776-.643 1.689-.643 2.738 0 1.051.214 1.964.643 2.74.43.777.995 1.369 1.696 1.779.701.41 1.45.614 2.244.614.817 0 1.575-.21 2.276-.629.702-.421 1.267-1.019 1.696-1.796.429-.776.643-1.7.643-2.77 0-1.051-.214-1.958-.643-2.724-.429-.766-.994-1.349-1.696-1.748a4.52 4.52 0 00-2.276-.597zm21.285 0c-.795 0-1.544.204-2.245.613-.7.409-1.265 1.002-1.695 1.78-.428.776-.643 1.689-.643 2.738 0 1.051.215 1.964.643 2.74.43.777.994 1.369 1.695 1.779.701.41 1.45.614 2.245.614a4.36 4.36 0 002.277-.629c.7-.421 1.266-1.019 1.695-1.796.43-.776.644-1.7.644-2.77 0-1.051-.215-1.958-.644-2.724-.429-.766-.994-1.349-1.695-1.748a4.524 4.524 0 00-2.277-.597z" fill="#222"/><path fill-rule="evenodd" clip-rule="evenodd" d="M46.187 6h27.626c6.325 0 8.618.658 10.93 1.894a12.902 12.902 0 015.363 5.364C91.342 15.569 92 17.862 92 24.187v27.626c0 6.325-.658 8.617-1.894 10.93a12.902 12.902 0 01-5.364 5.363C82.431 69.342 80.138 70 73.813 70H46.187c-6.325 0-8.618-.658-10.93-1.894a12.899 12.899 0 01-5.361-5.364C28.657 60.43 28 58.138 28 51.813V24.187c0-6.325.658-8.618 1.895-10.93a12.899 12.899 0 015.363-5.363C37.569 6.658 39.862 6 46.187 6z" fill="url(#paint0_linear_1_355)"/><path opacity=".9" fill-rule="evenodd" clip-rule="evenodd" d="M52.393 23.067v.347l-.355.354c-1.754 1.792-3.102 3.911-4.046 6.36a22.256 22.256 0 00-1.51 8.073c0 2.7.476 5.305 1.431 7.82.955 2.513 2.317 4.693 4.086 6.54v.373h-3.705l-.314-.32c-1.549-1.617-2.762-3.644-3.64-6.074-.938-2.594-1.406-5.374-1.406-8.34 0-3.037.49-5.893 1.47-8.566.982-2.673 2.41-4.861 4.284-6.567h3.705zm18.92 0l.346.325c1.705 1.656 3.017 3.737 3.936 6.242.981 2.673 1.472 5.529 1.472 8.567 0 2.965-.47 5.745-1.406 8.339-.937 2.593-2.256 4.724-3.955 6.394h-3.705v-.374l.348-.373c1.601-1.765 2.847-3.82 3.738-6.166a21.82 21.82 0 001.432-7.82c0-2.771-.503-5.463-1.51-8.074-1.008-2.611-2.475-4.849-4.401-6.713v-.347h3.704zm-15.241 6.021v7.646h7.856v-7.646h3.68v18.596h-3.68v-7.912h-7.856v7.913h-3.679V29.087h3.679z" fill="#fff"/><defs><linearGradient id="paint0_linear_1_355" x1="26.433" y1="3.582" x2="91.903" y2="68.156" gradientUnits="userSpaceOnUse"><stop stop-color="#680D81"/><stop offset=".365" stop-color="#4E61B8"/><stop offset=".684" stop-color="#1796AF"/><stop offset="1" stop-color="#0ABA9C"/></linearGradient></defs></svg>